%TF.GenerationSoftware,KiCad,Pcbnew,7.0.10*%
%TF.CreationDate,2024-02-06T13:15:05+02:00*%
%TF.ProjectId,EB-190,45422d31-3930-42e6-9b69-6361645f7063,rev?*%
%TF.SameCoordinates,Original*%
%TF.FileFunction,Profile,NP*%
%FSLAX46Y46*%
G04 Gerber Fmt 4.6, Leading zero omitted, Abs format (unit mm)*
G04 Created by KiCad (PCBNEW 7.0.10) date 2024-02-06 13:15:05*
%MOMM*%
%LPD*%
G01*
G04 APERTURE LIST*
%TA.AperFunction,Profile*%
%ADD10C,0.200000*%
%TD*%
G04 APERTURE END LIST*
D10*
X327853000Y-163872000D02*
X322853000Y-163872000D01*
X93853000Y-223672000D02*
X327853000Y-223672000D01*
X98853000Y-73872000D02*
X98853000Y-53872000D01*
X322853000Y-183872000D02*
X322853000Y-163872000D01*
X93853000Y-23872000D02*
X93853000Y-53872000D01*
X322853000Y-73872000D02*
X322853000Y-53872000D01*
X322853000Y-183872000D02*
X327853000Y-183872000D01*
X93853000Y-73872000D02*
X98853000Y-73872000D01*
X93853000Y-223672000D02*
X93853000Y-183872000D01*
X327853000Y-53872000D02*
X322853000Y-53872000D01*
X93853000Y-183872000D02*
X98853000Y-183872000D01*
X327853000Y-163872000D02*
X327853000Y-73872000D01*
X93853000Y-53872000D02*
X98853000Y-53872000D01*
X93853000Y-163872000D02*
X98853000Y-163872000D01*
X327853000Y-23872000D02*
X93853000Y-23872000D01*
X327853000Y-223672000D02*
X327853000Y-183872000D01*
X327853000Y-23872000D02*
X327853000Y-53872000D01*
X93853000Y-163872000D02*
X93853000Y-73872000D01*
X322853000Y-73872000D02*
X327853000Y-73872000D01*
X98853000Y-183872000D02*
X98853000Y-163872000D01*
M02*
