%TF.GenerationSoftware,KiCad,Pcbnew,7.0.10*%
%TF.CreationDate,2024-02-02T16:27:03+02:00*%
%TF.ProjectId,EB-190,45422d31-3930-42e6-9b69-6361645f7063,rev?*%
%TF.SameCoordinates,Original*%
%TF.FileFunction,Copper,L1,Top*%
%TF.FilePolarity,Positive*%
%FSLAX46Y46*%
G04 Gerber Fmt 4.6, Leading zero omitted, Abs format (unit mm)*
G04 Created by KiCad (PCBNEW 7.0.10) date 2024-02-02 16:27:03*
%MOMM*%
%LPD*%
G01*
G04 APERTURE LIST*
G04 Aperture macros list*
%AMRoundRect*
0 Rectangle with rounded corners*
0 $1 Rounding radius*
0 $2 $3 $4 $5 $6 $7 $8 $9 X,Y pos of 4 corners*
0 Add a 4 corners polygon primitive as box body*
4,1,4,$2,$3,$4,$5,$6,$7,$8,$9,$2,$3,0*
0 Add four circle primitives for the rounded corners*
1,1,$1+$1,$2,$3*
1,1,$1+$1,$4,$5*
1,1,$1+$1,$6,$7*
1,1,$1+$1,$8,$9*
0 Add four rect primitives between the rounded corners*
20,1,$1+$1,$2,$3,$4,$5,0*
20,1,$1+$1,$4,$5,$6,$7,0*
20,1,$1+$1,$6,$7,$8,$9,0*
20,1,$1+$1,$8,$9,$2,$3,0*%
G04 Aperture macros list end*
%TA.AperFunction,ComponentPad*%
%ADD10C,4.500000*%
%TD*%
%TA.AperFunction,ComponentPad*%
%ADD11C,1.600000*%
%TD*%
%TA.AperFunction,ComponentPad*%
%ADD12O,1.600000X1.600000*%
%TD*%
%TA.AperFunction,ComponentPad*%
%ADD13C,3.000000*%
%TD*%
%TA.AperFunction,ComponentPad*%
%ADD14O,1.300000X5.200000*%
%TD*%
%TA.AperFunction,ComponentPad*%
%ADD15C,1.300000*%
%TD*%
%TA.AperFunction,ComponentPad*%
%ADD16R,1.268000X1.268000*%
%TD*%
%TA.AperFunction,ComponentPad*%
%ADD17C,1.268000*%
%TD*%
%TA.AperFunction,ComponentPad*%
%ADD18R,1.800000X1.800000*%
%TD*%
%TA.AperFunction,ComponentPad*%
%ADD19C,1.800000*%
%TD*%
%TA.AperFunction,ComponentPad*%
%ADD20C,2.600000*%
%TD*%
%TA.AperFunction,ComponentPad*%
%ADD21R,2.000000X2.000000*%
%TD*%
%TA.AperFunction,ComponentPad*%
%ADD22C,2.000000*%
%TD*%
%TA.AperFunction,ComponentPad*%
%ADD23C,2.800000*%
%TD*%
%TA.AperFunction,ComponentPad*%
%ADD24O,2.800000X2.800000*%
%TD*%
%TA.AperFunction,ComponentPad*%
%ADD25R,1.700000X1.700000*%
%TD*%
%TA.AperFunction,ComponentPad*%
%ADD26O,1.700000X1.700000*%
%TD*%
%TA.AperFunction,ComponentPad*%
%ADD27O,6.000000X4.000000*%
%TD*%
%TA.AperFunction,ComponentPad*%
%ADD28R,1.600000X1.600000*%
%TD*%
%TA.AperFunction,ComponentPad*%
%ADD29R,2.200000X2.200000*%
%TD*%
%TA.AperFunction,ComponentPad*%
%ADD30O,2.200000X2.200000*%
%TD*%
%TA.AperFunction,ComponentPad*%
%ADD31C,2.400000*%
%TD*%
%TA.AperFunction,ComponentPad*%
%ADD32C,1.803400*%
%TD*%
%TA.AperFunction,ComponentPad*%
%ADD33C,1.500000*%
%TD*%
%TA.AperFunction,ComponentPad*%
%ADD34RoundRect,0.800000X1.450000X-0.800000X1.450000X0.800000X-1.450000X0.800000X-1.450000X-0.800000X0*%
%TD*%
%TA.AperFunction,ComponentPad*%
%ADD35C,1.524000*%
%TD*%
%TA.AperFunction,ComponentPad*%
%ADD36R,1.300000X1.300000*%
%TD*%
%TA.AperFunction,ComponentPad*%
%ADD37R,1.905000X2.000000*%
%TD*%
%TA.AperFunction,ComponentPad*%
%ADD38O,1.905000X2.000000*%
%TD*%
%TA.AperFunction,ComponentPad*%
%ADD39O,2.400000X2.400000*%
%TD*%
%TA.AperFunction,ComponentPad*%
%ADD40C,4.000000*%
%TD*%
%TA.AperFunction,ViaPad*%
%ADD41C,5.000000*%
%TD*%
%TA.AperFunction,ViaPad*%
%ADD42C,0.800000*%
%TD*%
%TA.AperFunction,Conductor*%
%ADD43C,1.000000*%
%TD*%
%TA.AperFunction,Conductor*%
%ADD44C,1.500000*%
%TD*%
G04 APERTURE END LIST*
D10*
%TO.P,TP23,1,1*%
%TO.N,Net-(R4-Pad2)*%
X191770000Y-150114000D03*
%TD*%
%TO.P,TP75,1,1*%
%TO.N,Net-(R8-Pad1)*%
X309245000Y-86487000D03*
%TD*%
%TO.P,TP45,1,1*%
%TO.N,Net-(F2-Pad2)*%
X189103000Y-117475000D03*
%TD*%
D11*
%TO.P,R13,1*%
%TO.N,/FAULT*%
X153924000Y-52832000D03*
D12*
%TO.P,R13,2*%
%TO.N,+12V*%
X153924000Y-65532000D03*
%TD*%
D10*
%TO.P,TP76,1,1*%
%TO.N,Net-(D5-K)*%
X311786000Y-172720000D03*
%TD*%
D13*
%TO.P,S1,1,A*%
%TO.N,Net-(Q2-E)*%
X108075000Y-96899000D03*
%TO.P,S1,2,B*%
%TO.N,/C2*%
X112775000Y-96899000D03*
%TO.P,S1,3,C*%
%TO.N,Net-(Q2-E)*%
X117475000Y-96899000D03*
%TO.P,S1,4,A*%
%TO.N,Net-(LED1-K)*%
X108075000Y-101729000D03*
%TO.P,S1,5,B*%
%TO.N,Net-(S1-B-Pad5)*%
X112775000Y-101729000D03*
%TO.P,S1,6,C*%
%TO.N,Net-(R1-Pad1)*%
X117475000Y-101729000D03*
D14*
%TO.P,S1,7*%
%TO.N,N/C*%
X104900000Y-99314000D03*
X120650000Y-99314000D03*
%TD*%
D15*
%TO.P,I2,1,+*%
%TO.N,Net-(I2-+)*%
X126195667Y-156464000D03*
%TO.P,I2,2,-*%
%TO.N,GND*%
X129370667Y-156464000D03*
%TD*%
D11*
%TO.P,R5,1*%
%TO.N,Net-(D8-K)*%
X252476000Y-64135000D03*
D12*
%TO.P,R5,2*%
%TO.N,Net-(Q1-B)*%
X262636000Y-64135000D03*
%TD*%
D10*
%TO.P,TP54,1,1*%
%TO.N,GND*%
X275971000Y-131445000D03*
%TD*%
D16*
%TO.P,P1,1,1*%
%TO.N,Net-(P1-Pad1)*%
X200914000Y-159258000D03*
D17*
%TO.P,P1,2,2*%
%TO.N,Net-(P1-Pad2)*%
X205994000Y-161798000D03*
%TO.P,P1,3,3*%
%TO.N,Net-(P1-Pad3)*%
X200914000Y-164338000D03*
%TD*%
D10*
%TO.P,TP1,1,1*%
%TO.N,+12V*%
X127000000Y-33147000D03*
%TD*%
%TO.P,TP74,1,1*%
%TO.N,Net-(D1-A)*%
X108411500Y-215900000D03*
%TD*%
D18*
%TO.P,LED2,1,K*%
%TO.N,/BLNK_LED_A*%
X139314000Y-122174000D03*
D19*
%TO.P,LED2,2,A*%
%TO.N,Net-(LED1-K)*%
X141854000Y-122174000D03*
%TD*%
D10*
%TO.P,TP64,1,1*%
%TO.N,Net-(I5-+)*%
X288799000Y-172720000D03*
%TD*%
%TO.P,TP71,1,1*%
%TO.N,Net-(R3-Pad2)*%
X172461000Y-192148000D03*
%TD*%
%TO.P,TP15,1,1*%
%TO.N,Net-(I4--)*%
X157712834Y-169037000D03*
%TD*%
D11*
%TO.P,R22,1*%
%TO.N,GND*%
X116713000Y-63246000D03*
D12*
%TO.P,R22,2*%
%TO.N,Net-(Q3-E)*%
X116713000Y-73406000D03*
%TD*%
D11*
%TO.P,S6,1*%
%TO.N,+12V*%
X281091000Y-50546000D03*
%TO.P,S6,2*%
%TO.N,/THERM_SW*%
X286091000Y-50546000D03*
%TD*%
D20*
%TO.P,JP1,1,A*%
%TO.N,/BLNK_RES*%
X127000000Y-115062000D03*
X130810000Y-115062000D03*
%TD*%
D10*
%TO.P,TP47,1,1*%
%TO.N,Net-(L5-Pad2B)*%
X207137000Y-141239000D03*
%TD*%
%TO.P,TP53,1,1*%
%TO.N,+12V*%
X276099000Y-99568000D03*
%TD*%
%TO.P,TP7,1,1*%
%TO.N,Net-(I1-+)*%
X112776000Y-141097000D03*
%TD*%
D15*
%TO.P,I1,1,+*%
%TO.N,Net-(I1-+)*%
X111230834Y-156464000D03*
%TO.P,I1,2,-*%
%TO.N,/I1*%
X114405834Y-156464000D03*
%TD*%
D21*
%TO.P,C1,1*%
%TO.N,Net-(C1-Pad1)*%
X150093323Y-204839000D03*
D22*
%TO.P,C1,2*%
%TO.N,Net-(C1-Pad2)*%
X155093323Y-204839000D03*
%TD*%
D18*
%TO.P,LED1,1,K*%
%TO.N,Net-(LED1-K)*%
X141859000Y-107061000D03*
D19*
%TO.P,LED1,2,A*%
%TO.N,/BLNK_LED_A*%
X139319000Y-107061000D03*
%TD*%
D13*
%TO.P,S4,1,B*%
%TO.N,Net-(S4-B)*%
X223774000Y-104902000D03*
%TO.P,S4,2,C*%
%TO.N,Net-(S4-C)*%
X228474000Y-104902000D03*
%TO.P,S4,3,A*%
%TO.N,Net-(S4-A)*%
X233174000Y-104902000D03*
D14*
%TO.P,S4,4*%
%TO.N,N/C*%
X220599000Y-104902000D03*
X236349000Y-104902000D03*
%TD*%
D10*
%TO.P,TP63,1,1*%
%TO.N,Net-(D1-K)*%
X148411500Y-215900000D03*
%TD*%
D23*
%TO.P,R3,1*%
%TO.N,Net-(R3-Pad1)*%
X139761000Y-192148000D03*
D24*
%TO.P,R3,2*%
%TO.N,Net-(R3-Pad2)*%
X165161000Y-192148000D03*
%TD*%
D10*
%TO.P,TP38,1,1*%
%TO.N,Net-(RLY3-Pad1)*%
X218822000Y-197104000D03*
%TD*%
%TO.P,TP28,1,1*%
%TO.N,GND*%
X205740000Y-197104000D03*
%TD*%
%TO.P,TP27,1,1*%
%TO.N,Net-(S5-A)*%
X245746000Y-112522000D03*
%TD*%
%TO.P,TP51,1,1*%
%TO.N,GND*%
X271781000Y-197104000D03*
%TD*%
%TO.P,TP59,1,1*%
%TO.N,Net-(R2-Pad1)*%
X132461000Y-181737000D03*
%TD*%
%TO.P,TP13,1,1*%
%TO.N,/I4*%
X150219834Y-131445000D03*
%TD*%
D11*
%TO.P,R9,1*%
%TO.N,Net-(I5--)*%
X284480000Y-181610000D03*
D12*
%TO.P,R9,2*%
%TO.N,Net-(L4-+)*%
X284480000Y-191770000D03*
%TD*%
D11*
%TO.P,R1,1*%
%TO.N,Net-(R1-Pad1)*%
X113284000Y-121666000D03*
D12*
%TO.P,R1,2*%
%TO.N,/BLNK_RES*%
X123444000Y-121666000D03*
%TD*%
D10*
%TO.P,TP39,1,1*%
%TO.N,Net-(L5-Pad1A)*%
X171069000Y-141239000D03*
%TD*%
D25*
%TO.P,L4,1,-*%
%TO.N,Net-(I5-+)*%
X307341000Y-163703000D03*
D26*
%TO.P,L4,2,+*%
%TO.N,Net-(L4-+)*%
X309881000Y-163703000D03*
D27*
%TO.P,L4,M*%
%TO.N,N/C*%
X304261779Y-145517673D03*
X288261779Y-163717673D03*
%TD*%
D28*
%TO.P,D7,1,K*%
%TO.N,GND*%
X252222000Y-76835000D03*
D12*
%TO.P,D7,2,A*%
%TO.N,Net-(D7-A)*%
X252222000Y-69215000D03*
%TD*%
D29*
%TO.P,D4,1,K*%
%TO.N,Net-(D4-K)*%
X254001000Y-173355000D03*
D30*
%TO.P,D4,2,A*%
%TO.N,Net-(D4-A)*%
X254001000Y-183515000D03*
%TD*%
D10*
%TO.P,TP57,1,1*%
%TO.N,Net-(BZ1--)*%
X298070000Y-99568000D03*
%TD*%
%TO.P,TP61,1,1*%
%TO.N,Net-(C1-Pad1)*%
X132461000Y-204839000D03*
%TD*%
%TO.P,TP46,1,1*%
%TO.N,Net-(L5-Pad3)*%
X189103000Y-141239000D03*
%TD*%
D15*
%TO.P,I4,1,+*%
%TO.N,/I4*%
X156125334Y-156464000D03*
%TO.P,I4,2,-*%
%TO.N,Net-(I4--)*%
X159300334Y-156464000D03*
%TD*%
D28*
%TO.P,C2,1*%
%TO.N,+12V*%
X135803000Y-33147000D03*
D11*
%TO.P,C2,2*%
%TO.N,GND*%
X138303000Y-33147000D03*
%TD*%
D13*
%TO.P,S2,1,A*%
%TO.N,Net-(S2-A)*%
X181992000Y-57912000D03*
%TO.P,S2,2,B*%
%TO.N,Net-(S2-B)*%
X177292000Y-57912000D03*
%TO.P,S2,3,C*%
%TO.N,Net-(S2-C)*%
X172592000Y-57912000D03*
D14*
%TO.P,S2,4*%
%TO.N,N/C*%
X185167000Y-57912000D03*
X169417000Y-57912000D03*
%TD*%
D10*
%TO.P,TP37,1,1*%
%TO.N,/RLY_COIL*%
X226188000Y-162433000D03*
%TD*%
%TO.P,TP32,1,1*%
%TO.N,Net-(S3-C)*%
X210312000Y-65532000D03*
%TD*%
D18*
%TO.P,D8,1,K*%
%TO.N,Net-(D8-K)*%
X230510000Y-58547000D03*
D19*
%TO.P,D8,2,A*%
%TO.N,Net-(D8-A)*%
X227970000Y-58547000D03*
%TD*%
D10*
%TO.P,TP49,1,1*%
%TO.N,Net-(D4-A)*%
X259716000Y-197104000D03*
%TD*%
%TO.P,TP19,1,1*%
%TO.N,Net-(S2-B)*%
X177292000Y-65532000D03*
%TD*%
%TO.P,TP67,1,1*%
%TO.N,Net-(I5-+)*%
X301499000Y-172720000D03*
%TD*%
D11*
%TO.P,R15,1*%
%TO.N,/FAULT*%
X143256000Y-52832000D03*
D12*
%TO.P,R15,2*%
%TO.N,/RLY1_C2*%
X143256000Y-65532000D03*
%TD*%
D10*
%TO.P,TP60,1,1*%
%TO.N,Net-(R3-Pad1)*%
X132461000Y-192148000D03*
%TD*%
D11*
%TO.P,R18,1*%
%TO.N,/RLY1_NO2*%
X122809000Y-65405000D03*
D12*
%TO.P,R18,2*%
%TO.N,Net-(U1-START)*%
X122809000Y-55245000D03*
%TD*%
D10*
%TO.P,TP40,1,1*%
%TO.N,/RLY_C*%
X228854000Y-188722000D03*
%TD*%
%TO.P,TP52,1,1*%
%TO.N,Net-(R7-Pad1)*%
X309372000Y-50571400D03*
%TD*%
D31*
%TO.P,R7,1*%
%TO.N,Net-(R7-Pad1)*%
X289981000Y-74784000D03*
%TO.P,R7,2*%
%TO.N,/THERMISTOR_A*%
X294981000Y-74784000D03*
%TD*%
D10*
%TO.P,TP8,1,1*%
%TO.N,Net-(LED1-K)*%
X150219834Y-115062000D03*
%TD*%
D28*
%TO.P,D6,1,K*%
%TO.N,/C2*%
X160274000Y-63373000D03*
D12*
%TO.P,D6,2,A*%
%TO.N,Net-(D6-A)*%
X160274000Y-55753000D03*
%TD*%
D10*
%TO.P,TP12,1,1*%
%TO.N,Net-(I3-+)*%
X142642166Y-141097000D03*
%TD*%
D15*
%TO.P,I3,1,+*%
%TO.N,Net-(I3-+)*%
X141160500Y-156464000D03*
%TO.P,I3,2,-*%
%TO.N,/I3*%
X144335500Y-156464000D03*
%TD*%
D10*
%TO.P,TP77,1,1*%
%TO.N,Net-(D5-A)*%
X311786000Y-197104000D03*
%TD*%
D11*
%TO.P,R23,1*%
%TO.N,Net-(R23-Pad1)*%
X139827000Y-52832000D03*
D12*
%TO.P,R23,2*%
%TO.N,Net-(C5-Pad2)*%
X139827000Y-62992000D03*
%TD*%
D10*
%TO.P,TP6,1,1*%
%TO.N,Net-(I1-+)*%
X105325334Y-131445000D03*
%TD*%
%TO.P,TP16,1,1*%
%TO.N,GND*%
X172339000Y-169037000D03*
%TD*%
%TO.P,TP72,1,1*%
%TO.N,Net-(C1-Pad2)*%
X172461000Y-204839000D03*
%TD*%
%TO.P,TP29,1,1*%
%TO.N,Net-(S3-B)*%
X202438000Y-86487000D03*
%TD*%
D32*
%TO.P,RLY3,1*%
%TO.N,Net-(RLY3-Pad1)*%
X262109996Y-144713000D03*
%TO.P,RLY3,2*%
%TO.N,/RLY_NC*%
X245609996Y-144713000D03*
%TO.P,RLY3,3*%
%TO.N,/RLY_NO*%
X238609995Y-144713000D03*
%TO.P,RLY3,4*%
%TO.N,/RLY_C*%
X242109996Y-152213000D03*
%TO.P,RLY3,5*%
%TO.N,/RLY_COIL*%
X262109996Y-152213000D03*
%TD*%
D11*
%TO.P,R4,1*%
%TO.N,Net-(P1-Pad1)*%
X182753000Y-167259000D03*
D12*
%TO.P,R4,2*%
%TO.N,Net-(R4-Pad2)*%
X182753000Y-157099000D03*
%TD*%
D10*
%TO.P,TP5,1,1*%
%TO.N,Net-(F1-Pad2)*%
X122809000Y-86487000D03*
%TD*%
D33*
%TO.P,L5,1A*%
%TO.N,Net-(L5-Pad1A)*%
X169007000Y-100013000D03*
%TO.P,L5,1B*%
%TO.N,Net-(F2-Pad1)*%
X169007000Y-108013000D03*
%TO.P,L5,2A*%
X209707000Y-100013000D03*
%TO.P,L5,2B*%
%TO.N,Net-(L5-Pad2B)*%
X209707000Y-108013000D03*
%TO.P,L5,3*%
%TO.N,Net-(L5-Pad3)*%
X169007000Y-104013000D03*
%TO.P,L5,4*%
%TO.N,Net-(F2-Pad1)*%
X209707000Y-104013000D03*
D34*
%TO.P,L5,M*%
%TO.N,N/C*%
X172107000Y-97013000D03*
X172107000Y-111013000D03*
X206607000Y-97013000D03*
X206607000Y-111013000D03*
%TD*%
D10*
%TO.P,TP65,1,1*%
%TO.N,Net-(L4-+)*%
X288672000Y-197104000D03*
%TD*%
%TO.P,TP50,1,1*%
%TO.N,GND*%
X108331000Y-181864000D03*
%TD*%
%TO.P,TP17,1,1*%
%TO.N,Net-(S2-C)*%
X185166000Y-86487000D03*
%TD*%
D11*
%TO.P,R19,1*%
%TO.N,Net-(U1-VSS)*%
X125857000Y-65405000D03*
D12*
%TO.P,R19,2*%
%TO.N,GND*%
X125857000Y-55245000D03*
%TD*%
D10*
%TO.P,TP25,1,1*%
%TO.N,Net-(P1-Pad3)*%
X191770000Y-197104000D03*
%TD*%
D29*
%TO.P,D2,1,K*%
%TO.N,Net-(D2-K)*%
X171430500Y-220726000D03*
D30*
%TO.P,D2,2,A*%
%TO.N,Net-(D2-A)*%
X181590500Y-220726000D03*
%TD*%
D28*
%TO.P,C4,1*%
%TO.N,/FAULT*%
X108522888Y-56261000D03*
D11*
%TO.P,C4,2*%
%TO.N,Net-(Q3-B)*%
X111022888Y-56261000D03*
%TD*%
%TO.P,R12,1*%
%TO.N,/FAULT*%
X150114000Y-52832000D03*
D12*
%TO.P,R12,2*%
%TO.N,+12V*%
X150114000Y-65532000D03*
%TD*%
D10*
%TO.P,TP20,1,1*%
%TO.N,Net-(S4-B)*%
X228474000Y-112522000D03*
%TD*%
D11*
%TO.P,R24,1*%
%TO.N,Net-(D7-A)*%
X255270000Y-69215000D03*
D12*
%TO.P,R24,2*%
%TO.N,Net-(Q1-B)*%
X255270000Y-79375000D03*
%TD*%
D13*
%TO.P,S3,1,A*%
%TO.N,Net-(S3-A)*%
X207138000Y-57912000D03*
%TO.P,S3,2,B*%
%TO.N,Net-(S3-B)*%
X202438000Y-57912000D03*
%TO.P,S3,3,C*%
%TO.N,Net-(S3-C)*%
X197738000Y-57912000D03*
D14*
%TO.P,S3,4*%
%TO.N,N/C*%
X210313000Y-57912000D03*
X194563000Y-57912000D03*
%TD*%
D10*
%TO.P,TP22,1,1*%
%TO.N,Net-(S4-A)*%
X220600000Y-131445000D03*
%TD*%
%TO.P,TP9,1,1*%
%TO.N,Net-(R14-Pad1)*%
X147193000Y-86487000D03*
%TD*%
%TO.P,TP3,1,1*%
%TO.N,Net-(R1-Pad1)*%
X105325334Y-115062000D03*
%TD*%
D23*
%TO.P,R2,1*%
%TO.N,Net-(R2-Pad1)*%
X139761000Y-181737000D03*
D24*
%TO.P,R2,2*%
%TO.N,Net-(R2-Pad2)*%
X165161000Y-181737000D03*
%TD*%
D15*
%TO.P,BZ1,1,-*%
%TO.N,Net-(BZ1--)*%
X297942000Y-111262000D03*
%TO.P,BZ1,2,+*%
%TO.N,Net-(BZ1-+)*%
X297942000Y-118862000D03*
%TD*%
D10*
%TO.P,TP44,1,1*%
%TO.N,Net-(RLY3-Pad1)*%
X242317000Y-197104000D03*
%TD*%
%TO.P,TP2,1,1*%
%TO.N,GND*%
X147828000Y-33147000D03*
%TD*%
%TO.P,TP42,1,1*%
%TO.N,+12V*%
X226188000Y-150114000D03*
%TD*%
D29*
%TO.P,D5,1,K*%
%TO.N,Net-(D5-K)*%
X305562000Y-179832000D03*
D30*
%TO.P,D5,2,A*%
%TO.N,Net-(D5-A)*%
X305562000Y-189992000D03*
%TD*%
D10*
%TO.P,TP36,1,1*%
%TO.N,Net-(D8-A)*%
X222123000Y-65532000D03*
%TD*%
%TO.P,TP4,1,1*%
%TO.N,Net-(S1-B-Pad5)*%
X135001000Y-86487000D03*
%TD*%
%TO.P,TP33,1,1*%
%TO.N,Net-(S5-C)*%
X261494000Y-112522000D03*
%TD*%
%TO.P,TP30,1,1*%
%TO.N,Net-(S5-B)*%
X253620000Y-131445000D03*
%TD*%
%TO.P,TP18,1,1*%
%TO.N,Net-(S4-C)*%
X236348000Y-131445000D03*
%TD*%
%TO.P,TP43,1,1*%
%TO.N,/RLY_COIL*%
X242317000Y-162433000D03*
%TD*%
D11*
%TO.P,R20,1*%
%TO.N,+12V*%
X123952000Y-49784000D03*
D12*
%TO.P,R20,2*%
%TO.N,Net-(D6-A)*%
X134112000Y-49784000D03*
%TD*%
D22*
%TO.P,RL1,1,1*%
%TO.N,/RLY1_C2*%
X114427000Y-49854786D03*
%TO.P,RL1,2,2*%
%TO.N,/RLY1_COIL*%
X114427000Y-57474786D03*
%TO.P,RL1,3,3*%
%TO.N,unconnected-(RL1-Pad3)*%
X114427000Y-60014786D03*
%TO.P,RL1,4,4*%
%TO.N,/RLY1_NO2*%
X119507000Y-60014786D03*
%TO.P,RL1,5,5*%
%TO.N,GND*%
X119507000Y-57474786D03*
%TO.P,RL1,6,6*%
%TO.N,/RLY1_C2*%
X119507000Y-49854786D03*
%TD*%
D10*
%TO.P,TP26,1,1*%
%TO.N,Net-(S3-A)*%
X194564000Y-65532000D03*
%TD*%
D29*
%TO.P,D1,1,K*%
%TO.N,Net-(D1-K)*%
X133477000Y-220726000D03*
D30*
%TO.P,D1,2,A*%
%TO.N,Net-(D1-A)*%
X123317000Y-220726000D03*
%TD*%
D10*
%TO.P,TP34,1,1*%
%TO.N,/+PS_1*%
X222123000Y-86487000D03*
%TD*%
D11*
%TO.P,R8,1*%
%TO.N,Net-(R8-Pad1)*%
X303911000Y-80137000D03*
D12*
%TO.P,R8,2*%
%TO.N,/THERMISTOR_B*%
X303911000Y-69977000D03*
%TD*%
D10*
%TO.P,TP11,1,1*%
%TO.N,Net-(I2-+)*%
X127762000Y-141097000D03*
%TD*%
D11*
%TO.P,R14,1*%
%TO.N,Net-(R14-Pad1)*%
X157353000Y-65532000D03*
D12*
%TO.P,R14,2*%
%TO.N,/FAULT*%
X157353000Y-55372000D03*
%TD*%
D10*
%TO.P,TP58,1,1*%
%TO.N,Net-(BZ1-+)*%
X297942000Y-131445000D03*
%TD*%
D35*
%TO.P,I5,1,+*%
%TO.N,Net-(I5-+)*%
X276516000Y-190561000D03*
%TO.P,I5,2,-*%
%TO.N,Net-(I5--)*%
X281016000Y-190561000D03*
%TD*%
D11*
%TO.P,R16,1*%
%TO.N,/RLY1_C2*%
X146685000Y-65532000D03*
D12*
%TO.P,R16,2*%
%TO.N,Net-(Q3-B)*%
X146685000Y-55372000D03*
%TD*%
D10*
%TO.P,TP14,1,1*%
%TO.N,/I4*%
X157607000Y-141097000D03*
%TD*%
%TO.P,TP69,1,1*%
%TO.N,/THERM_SW_PIN*%
X296418000Y-86487000D03*
%TD*%
D29*
%TO.P,D3,1,K*%
%TO.N,Net-(BZ1--)*%
X309118000Y-109982000D03*
D30*
%TO.P,D3,2,A*%
%TO.N,Net-(BZ1-+)*%
X309118000Y-120142000D03*
%TD*%
D10*
%TO.P,TP66,1,1*%
%TO.N,/THERMISTOR_B*%
X309372000Y-64668400D03*
%TD*%
D11*
%TO.P,R17,1*%
%TO.N,Net-(Q3-B)*%
X110998000Y-91821000D03*
D12*
%TO.P,R17,2*%
%TO.N,/C2*%
X121158000Y-91821000D03*
%TD*%
D10*
%TO.P,TP55,1,1*%
%TO.N,+12V*%
X271781000Y-172720000D03*
%TD*%
%TO.P,TP35,1,1*%
%TO.N,/RLY_NO_BN*%
X238252000Y-172720000D03*
%TD*%
D36*
%TO.P,Q3,1,C*%
%TO.N,/FAULT*%
X108458000Y-50165000D03*
D15*
%TO.P,Q3,2,B*%
%TO.N,Net-(Q3-B)*%
X109728000Y-48895000D03*
%TO.P,Q3,3,E*%
%TO.N,Net-(Q3-E)*%
X110998000Y-50165000D03*
%TD*%
D10*
%TO.P,TP41,1,1*%
%TO.N,/RLY_NC*%
X218822000Y-172720000D03*
%TD*%
D11*
%TO.P,F1,1*%
%TO.N,/RLY1_NO2*%
X119507000Y-65445000D03*
%TO.P,F1,2*%
%TO.N,Net-(F1-Pad2)*%
X119507000Y-70445000D03*
%TD*%
D37*
%TO.P,Q1,1,C*%
%TO.N,+12V*%
X271399000Y-68740000D03*
D38*
%TO.P,Q1,2,B*%
%TO.N,Net-(Q1-B)*%
X273939000Y-68740000D03*
%TO.P,Q1,3,E*%
%TO.N,Net-(Q1-E)*%
X276479000Y-68740000D03*
%TD*%
D28*
%TO.P,C5,1*%
%TO.N,+12V*%
X136652000Y-69912113D03*
D11*
%TO.P,C5,2*%
%TO.N,Net-(C5-Pad2)*%
X136652000Y-67412113D03*
%TD*%
D10*
%TO.P,TP68,1,1*%
%TO.N,Net-(L4-+)*%
X301499000Y-197104000D03*
%TD*%
%TO.P,TP31,1,1*%
%TO.N,Net-(P1-Pad2)*%
X205994000Y-184531000D03*
%TD*%
D11*
%TO.P,F2,1*%
%TO.N,Net-(F2-Pad1)*%
X175467000Y-117475000D03*
%TO.P,F2,2*%
%TO.N,Net-(F2-Pad2)*%
X180467000Y-117475000D03*
%TD*%
D10*
%TO.P,TP70,1,1*%
%TO.N,Net-(R2-Pad2)*%
X172461000Y-181737000D03*
%TD*%
D31*
%TO.P,R6,1*%
%TO.N,Net-(Q1-E)*%
X259715000Y-69596000D03*
D39*
%TO.P,R6,2*%
%TO.N,GND*%
X259715000Y-89916000D03*
%TD*%
D13*
%TO.P,S5,1,B*%
%TO.N,Net-(S5-B)*%
X248920000Y-104902000D03*
%TO.P,S5,2,C*%
%TO.N,Net-(S5-C)*%
X253620000Y-104902000D03*
%TO.P,S5,3,A*%
%TO.N,Net-(S5-A)*%
X258320000Y-104902000D03*
D14*
%TO.P,S5,4*%
%TO.N,N/C*%
X245745000Y-104902000D03*
X261495000Y-104902000D03*
%TD*%
D10*
%TO.P,TP24,1,1*%
%TO.N,Net-(P1-Pad1)*%
X191770000Y-172720000D03*
%TD*%
D36*
%TO.P,Q2,1,C*%
%TO.N,GND*%
X114935000Y-79502000D03*
D15*
%TO.P,Q2,2,B*%
%TO.N,Net-(Q2-B)*%
X113665000Y-80772000D03*
%TO.P,Q2,3,E*%
%TO.N,Net-(Q2-E)*%
X112395000Y-79502000D03*
%TD*%
D10*
%TO.P,TP62,1,1*%
%TO.N,Net-(D2-A)*%
X196510500Y-215900000D03*
%TD*%
%TO.P,TP21,1,1*%
%TO.N,Net-(S2-A)*%
X169418000Y-86487000D03*
%TD*%
%TO.P,TP73,1,1*%
%TO.N,Net-(D2-K)*%
X156510500Y-215900000D03*
%TD*%
%TO.P,TP48,1,1*%
%TO.N,Net-(D4-K)*%
X259716000Y-162433000D03*
%TD*%
%TO.P,TP10,1,1*%
%TO.N,/I1_R*%
X112818334Y-169037000D03*
%TD*%
D11*
%TO.P,R21,1*%
%TO.N,Net-(Q3-E)*%
X113665000Y-63246000D03*
D12*
%TO.P,R21,2*%
%TO.N,Net-(Q2-B)*%
X113665000Y-73406000D03*
%TD*%
D33*
%TO.P,J1,1,Pin_1*%
%TO.N,unconnected-(J1-Pin_1-Pad1)*%
X192457055Y-37373625D03*
%TO.P,J1,2,Pin_2*%
%TO.N,unconnected-(J1-Pin_2-Pad2)*%
X194617055Y-37373625D03*
%TO.P,J1,3,Pin_3*%
%TO.N,unconnected-(J1-Pin_3-Pad3)*%
X196777055Y-37373625D03*
%TO.P,J1,4,Pin_4*%
%TO.N,unconnected-(J1-Pin_4-Pad4)*%
X198937055Y-37373625D03*
%TO.P,J1,5,Pin_5*%
%TO.N,/I1*%
X201097055Y-37373625D03*
%TO.P,J1,6,Pin_6*%
%TO.N,/I1_R*%
X203257055Y-37373625D03*
%TO.P,J1,7,Pin_7*%
%TO.N,unconnected-(J1-Pin_7-Pad7)*%
X205417055Y-37373625D03*
%TO.P,J1,8,Pin_8*%
%TO.N,/BLNK_RES*%
X207577055Y-37373625D03*
%TO.P,J1,9,Pin_9*%
%TO.N,/BLNK_LED_A*%
X209737055Y-37373625D03*
%TO.P,J1,10,Pin_10*%
%TO.N,unconnected-(J1-Pin_10-Pad10)*%
X211897055Y-37373625D03*
%TO.P,J1,11,Pin_11*%
%TO.N,/I3*%
X214057055Y-37373625D03*
%TO.P,J1,12,Pin_12*%
%TO.N,GND*%
X216217055Y-37373625D03*
%TO.P,J1,13,Pin_13*%
%TO.N,/RLY_COIL*%
X218377055Y-37373625D03*
%TO.P,J1,14,Pin_14*%
%TO.N,unconnected-(J1-Pin_14-Pad14)*%
X220537055Y-37373625D03*
%TO.P,J1,15,Pin_15*%
%TO.N,/RLY_C*%
X222697055Y-37373625D03*
%TO.P,J1,16,Pin_16*%
%TO.N,unconnected-(J1-Pin_16-Pad16)*%
X224857055Y-37373625D03*
%TO.P,J1,17,Pin_17*%
%TO.N,/RLY_NO_BN*%
X227017055Y-37373625D03*
%TO.P,J1,18,Pin_18*%
%TO.N,/RLY_NO*%
X229177055Y-37373625D03*
%TO.P,J1,19,Pin_19*%
%TO.N,unconnected-(J1-Pin_19-Pad19)*%
X192457055Y-33083625D03*
%TO.P,J1,20,Pin_20*%
%TO.N,unconnected-(J1-Pin_20-Pad20)*%
X194617055Y-33083625D03*
%TO.P,J1,21,Pin_21*%
%TO.N,unconnected-(J1-Pin_21-Pad21)*%
X196777055Y-33083625D03*
%TO.P,J1,22,Pin_22*%
%TO.N,/+PS_1*%
X198937055Y-33083625D03*
%TO.P,J1,23,Pin_23*%
%TO.N,GND*%
X201097055Y-33083625D03*
%TO.P,J1,24,Pin_24*%
%TO.N,+12V*%
X203257055Y-33083625D03*
%TO.P,J1,25,Pin_25*%
%TO.N,unconnected-(J1-Pin_25-Pad25)*%
X205417055Y-33083625D03*
%TO.P,J1,26,Pin_26*%
%TO.N,unconnected-(J1-Pin_26-Pad26)*%
X207577055Y-33083625D03*
%TO.P,J1,27,Pin_27*%
%TO.N,unconnected-(J1-Pin_27-Pad27)*%
X209737055Y-33083625D03*
%TO.P,J1,28,Pin_28*%
%TO.N,Net-(J1-Pin_28)*%
X211897055Y-33083625D03*
%TO.P,J1,29,Pin_29*%
%TO.N,unconnected-(J1-Pin_29-Pad29)*%
X214057055Y-33083625D03*
%TO.P,J1,30,Pin_30*%
%TO.N,GND*%
X216217055Y-33083625D03*
%TO.P,J1,31,Pin_31*%
%TO.N,/THERMISTOR_A*%
X218377055Y-33083625D03*
%TO.P,J1,32,Pin_32*%
%TO.N,/THERMISTOR_B*%
X220537055Y-33083625D03*
%TO.P,J1,33,Pin_33*%
%TO.N,unconnected-(J1-Pin_33-Pad33)*%
X222697055Y-33083625D03*
%TO.P,J1,34,Pin_34*%
%TO.N,/THERM_SW*%
X224857055Y-33083625D03*
%TO.P,J1,35,Pin_35*%
%TO.N,/THERM_SW_PIN*%
X227017055Y-33083625D03*
%TO.P,J1,36,Pin_36*%
%TO.N,unconnected-(J1-Pin_36-Pad36)*%
X229177055Y-33083625D03*
D40*
%TO.P,J1,M*%
%TO.N,N/C*%
X180947055Y-35228625D03*
X240687055Y-35228625D03*
%TD*%
D10*
%TO.P,TP56,1,1*%
%TO.N,+12V*%
X271399000Y-86487000D03*
%TD*%
D28*
%TO.P,U1,1,VSS*%
%TO.N,Net-(U1-VSS)*%
X129042000Y-61077000D03*
D12*
%TO.P,U1,2,VCC*%
%TO.N,+12V*%
X131582000Y-61077000D03*
%TO.P,U1,3,RELAY*%
%TO.N,/RLY1_COIL*%
X134122000Y-61077000D03*
%TO.P,U1,4,OSC*%
%TO.N,Net-(C5-Pad2)*%
X136662000Y-61077000D03*
%TO.P,U1,5,OSC*%
%TO.N,Net-(R23-Pad1)*%
X136662000Y-53457000D03*
%TO.P,U1,6,EN*%
%TO.N,Net-(D6-A)*%
X134122000Y-53457000D03*
%TO.P,U1,7,FAULT*%
%TO.N,/FAULT*%
X131582000Y-53457000D03*
%TO.P,U1,8,START*%
%TO.N,Net-(U1-START)*%
X129042000Y-53457000D03*
%TD*%
D41*
%TO.N,*%
X184785000Y-192151000D03*
X251079000Y-196596000D03*
X148082000Y-105029000D03*
X261239000Y-131445000D03*
X172466000Y-159766000D03*
X262636000Y-168783000D03*
X252349000Y-88773000D03*
D42*
%TO.N,/I1*%
X206800062Y-51205562D03*
%TO.N,/I4*%
X211963000Y-27559000D03*
X188976000Y-52987500D03*
%TO.N,/I1_R*%
X190500000Y-27813000D03*
%TO.N,/RLY_NO*%
X251841000Y-141986000D03*
%TD*%
D43*
%TO.N,Net-(Q2-E)*%
X115060000Y-99314000D02*
X117475000Y-96899000D01*
X110490000Y-99314000D02*
X115060000Y-99314000D01*
X108075000Y-96899000D02*
X110490000Y-99314000D01*
D44*
%TO.N,+12V*%
X226188000Y-150114000D02*
X226188000Y-154941000D01*
X268224000Y-157988000D02*
X271781000Y-161545000D01*
X229235000Y-157988000D02*
X268224000Y-157988000D01*
X127000000Y-46736000D02*
X123952000Y-49784000D01*
X152019000Y-55118000D02*
X152019000Y-49657000D01*
X271781000Y-161545000D02*
X271781000Y-172720000D01*
X153924000Y-57023000D02*
X152019000Y-55118000D01*
X153924000Y-65532000D02*
X153924000Y-57023000D01*
X149098000Y-46736000D02*
X127000000Y-46736000D01*
X152019000Y-49657000D02*
X149098000Y-46736000D01*
X226188000Y-154941000D02*
X229235000Y-157988000D01*
D43*
%TO.N,GND*%
X116713000Y-65405000D02*
X115189000Y-66929000D01*
X116713000Y-63246000D02*
X116713000Y-65405000D01*
X115189000Y-79248000D02*
X114935000Y-79502000D01*
X115189000Y-66929000D02*
X115189000Y-79248000D01*
%TO.N,/FAULT*%
X109347000Y-53340000D02*
X108458000Y-52451000D01*
X128651000Y-55499000D02*
X126492000Y-53340000D01*
X130556000Y-55499000D02*
X128651000Y-55499000D01*
X126492000Y-53340000D02*
X109347000Y-53340000D01*
X108458000Y-52451000D02*
X108458000Y-50165000D01*
X131582000Y-53457000D02*
X131582000Y-54473000D01*
X131582000Y-54473000D02*
X130556000Y-55499000D01*
%TO.N,Net-(Q3-B)*%
X111022888Y-56261000D02*
X111022888Y-91796112D01*
X146685000Y-55372000D02*
X144907000Y-57150000D01*
X120269000Y-55245000D02*
X112038888Y-55245000D01*
X112038888Y-55245000D02*
X111022888Y-56261000D01*
X144907000Y-57150000D02*
X122174000Y-57150000D01*
X122174000Y-57150000D02*
X120269000Y-55245000D01*
X111022888Y-91796112D02*
X110998000Y-91821000D01*
%TO.N,/C2*%
X121158000Y-91821000D02*
X152019000Y-91821000D01*
X152019000Y-91821000D02*
X160274000Y-83566000D01*
X160274000Y-83566000D02*
X160274000Y-63373000D01*
%TO.N,/I1*%
X204367562Y-51205562D02*
X201097055Y-47935055D01*
X206800062Y-51205562D02*
X204367562Y-51205562D01*
X201097055Y-47935055D02*
X201097055Y-37373625D01*
%TO.N,/I4*%
X211963000Y-26797000D02*
X211963000Y-27559000D01*
X188976000Y-52987500D02*
X188976000Y-26924000D01*
X189992000Y-25908000D02*
X211074000Y-25908000D01*
X211074000Y-25908000D02*
X211963000Y-26797000D01*
X188976000Y-26924000D02*
X189992000Y-25908000D01*
%TO.N,Net-(Q1-E)*%
X259715000Y-70866000D02*
X259715000Y-69596000D01*
X276479000Y-68740000D02*
X276479000Y-70866000D01*
X260858000Y-72009000D02*
X259715000Y-70866000D01*
X275336000Y-72009000D02*
X260858000Y-72009000D01*
X276479000Y-70866000D02*
X275336000Y-72009000D01*
%TO.N,/I1_R*%
X190500000Y-27813000D02*
X190500000Y-33528000D01*
X190500000Y-33528000D02*
X192024000Y-35052000D01*
X192024000Y-35052000D02*
X202565000Y-35052000D01*
X203257055Y-35744055D02*
X203257055Y-37373625D01*
X202565000Y-35052000D02*
X203257055Y-35744055D01*
%TO.N,/RLY1_C2*%
X148844000Y-63373000D02*
X146685000Y-65532000D01*
X143256000Y-65532000D02*
X146685000Y-65532000D01*
X148844000Y-54356000D02*
X148844000Y-63373000D01*
X136387767Y-51562000D02*
X137022767Y-50927000D01*
X121214214Y-51562000D02*
X136387767Y-51562000D01*
X114427000Y-49854786D02*
X119507000Y-49854786D01*
X145415000Y-50927000D02*
X148844000Y-54356000D01*
X119507000Y-49854786D02*
X121214214Y-51562000D01*
X137022767Y-50927000D02*
X145415000Y-50927000D01*
%TO.N,/RLY1_COIL*%
X133477000Y-63246000D02*
X134122000Y-62601000D01*
X114427000Y-57474786D02*
X116021786Y-57474786D01*
X116713000Y-58166000D02*
X116713000Y-60071000D01*
X134122000Y-62601000D02*
X134122000Y-61077000D01*
X116713000Y-60071000D02*
X119888000Y-63246000D01*
X119888000Y-63246000D02*
X133477000Y-63246000D01*
X116021786Y-57474786D02*
X116713000Y-58166000D01*
%TO.N,/+PS_1*%
X200025000Y-29591000D02*
X198937055Y-30678945D01*
X234569000Y-30734000D02*
X233426000Y-29591000D01*
X198937055Y-30678945D02*
X198937055Y-33083625D01*
X222123000Y-86487000D02*
X215392000Y-79756000D01*
X234569000Y-44577000D02*
X234569000Y-30734000D01*
X215392000Y-79756000D02*
X215392000Y-55753000D01*
X215392000Y-55753000D02*
X225298000Y-45847000D01*
X233299000Y-45847000D02*
X234569000Y-44577000D01*
X233426000Y-29591000D02*
X200025000Y-29591000D01*
X225298000Y-45847000D02*
X233299000Y-45847000D01*
%TO.N,/RLY_NO*%
X251714000Y-141859000D02*
X241463995Y-141859000D01*
X251841000Y-141986000D02*
X251714000Y-141859000D01*
X241463995Y-141859000D02*
X238609995Y-144713000D01*
%TD*%
M02*
