%TF.GenerationSoftware,KiCad,Pcbnew,7.0.1*%
%TF.CreationDate,2024-01-30T16:28:06+02:00*%
%TF.ProjectId,EB-190,45422d31-3930-42e6-9b69-6361645f7063,rev?*%
%TF.SameCoordinates,Original*%
%TF.FileFunction,Soldermask,Bot*%
%TF.FilePolarity,Negative*%
%FSLAX46Y46*%
G04 Gerber Fmt 4.6, Leading zero omitted, Abs format (unit mm)*
G04 Created by KiCad (PCBNEW 7.0.1) date 2024-01-30 16:28:06*
%MOMM*%
%LPD*%
G01*
G04 APERTURE LIST*
G04 Aperture macros list*
%AMRoundRect*
0 Rectangle with rounded corners*
0 $1 Rounding radius*
0 $2 $3 $4 $5 $6 $7 $8 $9 X,Y pos of 4 corners*
0 Add a 4 corners polygon primitive as box body*
4,1,4,$2,$3,$4,$5,$6,$7,$8,$9,$2,$3,0*
0 Add four circle primitives for the rounded corners*
1,1,$1+$1,$2,$3*
1,1,$1+$1,$4,$5*
1,1,$1+$1,$6,$7*
1,1,$1+$1,$8,$9*
0 Add four rect primitives between the rounded corners*
20,1,$1+$1,$2,$3,$4,$5,0*
20,1,$1+$1,$4,$5,$6,$7,0*
20,1,$1+$1,$6,$7,$8,$9,0*
20,1,$1+$1,$8,$9,$2,$3,0*%
G04 Aperture macros list end*
%ADD10C,1.803400*%
%ADD11C,1.500000*%
%ADD12RoundRect,0.800000X1.450000X-0.800000X1.450000X0.800000X-1.450000X0.800000X-1.450000X-0.800000X0*%
%ADD13C,4.500000*%
%ADD14C,1.600000*%
%ADD15O,1.600000X1.600000*%
%ADD16C,3.000000*%
%ADD17O,1.300000X5.200000*%
%ADD18C,1.300000*%
%ADD19C,1.472000*%
%ADD20RoundRect,0.102000X-0.634000X0.634000X-0.634000X-0.634000X0.634000X-0.634000X0.634000X0.634000X0*%
%ADD21R,1.800000X1.800000*%
%ADD22C,1.800000*%
%ADD23C,2.600000*%
%ADD24R,2.000000X2.000000*%
%ADD25C,2.000000*%
%ADD26C,2.800000*%
%ADD27O,2.800000X2.800000*%
%ADD28R,1.700000X1.700000*%
%ADD29O,1.700000X1.700000*%
%ADD30O,6.000000X4.000000*%
%ADD31R,1.600000X1.600000*%
%ADD32R,2.200000X2.200000*%
%ADD33O,2.200000X2.200000*%
%ADD34C,2.400000*%
%ADD35C,1.524000*%
%ADD36R,1.300000X1.300000*%
%ADD37O,3.500000X3.500000*%
%ADD38R,1.905000X2.000000*%
%ADD39O,1.905000X2.000000*%
%ADD40O,2.400000X2.400000*%
%ADD41C,4.000000*%
%ADD42RoundRect,0.200000X0.275000X-0.200000X0.275000X0.200000X-0.275000X0.200000X-0.275000X-0.200000X0*%
%ADD43RoundRect,0.225000X0.225000X0.250000X-0.225000X0.250000X-0.225000X-0.250000X0.225000X-0.250000X0*%
G04 APERTURE END LIST*
D10*
%TO.C,RLY3*%
X262109996Y-144713000D03*
X245609996Y-144713000D03*
X238609995Y-144713000D03*
X242109996Y-152213000D03*
X262109996Y-152213000D03*
%TD*%
D11*
%TO.C,L5*%
X169007000Y-100013000D03*
X169007000Y-108013000D03*
X209707000Y-100013000D03*
X209707000Y-108013000D03*
X169007000Y-104013000D03*
X209707000Y-104013000D03*
D12*
X172107000Y-97013000D03*
X172107000Y-111013000D03*
X206607000Y-97013000D03*
X206607000Y-111013000D03*
%TD*%
D13*
%TO.C,TP23*%
X191770000Y-150114000D03*
%TD*%
%TO.C,TP75*%
X309245000Y-86487000D03*
%TD*%
%TO.C,TP45*%
X189103000Y-117475000D03*
%TD*%
D14*
%TO.C,R13*%
X153924000Y-52832000D03*
D15*
X153924000Y-65532000D03*
%TD*%
D13*
%TO.C,TP76*%
X311786000Y-172720000D03*
%TD*%
D16*
%TO.C,S1*%
X108075000Y-96899000D03*
X112775000Y-96899000D03*
X117475000Y-96899000D03*
X108075000Y-101729000D03*
X112775000Y-101729000D03*
X117475000Y-101729000D03*
D17*
X104900000Y-99314000D03*
X120650000Y-99314000D03*
%TD*%
D18*
%TO.C,I2*%
X126195667Y-156464000D03*
X129370667Y-156464000D03*
%TD*%
D14*
%TO.C,R5*%
X252476000Y-64135000D03*
D15*
X262636000Y-64135000D03*
%TD*%
D13*
%TO.C,TP54*%
X275971000Y-131445000D03*
%TD*%
D19*
%TO.C,P1*%
X200914000Y-164338000D03*
X205994000Y-161798000D03*
D20*
X200914000Y-159258000D03*
%TD*%
D13*
%TO.C,TP1*%
X127000000Y-33147000D03*
%TD*%
%TO.C,TP74*%
X108411500Y-215900000D03*
%TD*%
D21*
%TO.C,LED2*%
X139314000Y-122174000D03*
D22*
X141854000Y-122174000D03*
%TD*%
D13*
%TO.C,TP64*%
X288799000Y-172720000D03*
%TD*%
%TO.C,TP71*%
X172461000Y-192148000D03*
%TD*%
%TO.C,TP15*%
X157712834Y-169037000D03*
%TD*%
D14*
%TO.C,R22*%
X116713000Y-63246000D03*
D15*
X116713000Y-73406000D03*
%TD*%
D14*
%TO.C,S6*%
X281091000Y-50546000D03*
X286091000Y-50546000D03*
%TD*%
D23*
%TO.C,JP1*%
X127000000Y-115062000D03*
X130810000Y-115062000D03*
%TD*%
D13*
%TO.C,TP47*%
X207137000Y-141239000D03*
%TD*%
%TO.C,TP53*%
X276099000Y-99568000D03*
%TD*%
%TO.C,TP7*%
X112776000Y-141097000D03*
%TD*%
D18*
%TO.C,I1*%
X111230834Y-156464000D03*
X114405834Y-156464000D03*
%TD*%
D24*
%TO.C,C1*%
X150093323Y-204839000D03*
D25*
X155093323Y-204839000D03*
%TD*%
D22*
%TO.C,LED1*%
X139319000Y-107061000D03*
D21*
X141859000Y-107061000D03*
%TD*%
D16*
%TO.C,S4*%
X223774000Y-104902000D03*
X228474000Y-104902000D03*
X233174000Y-104902000D03*
D17*
X220599000Y-104902000D03*
X236349000Y-104902000D03*
%TD*%
D13*
%TO.C,TP63*%
X148411500Y-215900000D03*
%TD*%
D26*
%TO.C,R3*%
X139761000Y-192148000D03*
D27*
X165161000Y-192148000D03*
%TD*%
D13*
%TO.C,TP38*%
X218822000Y-197104000D03*
%TD*%
%TO.C,TP28*%
X205740000Y-197104000D03*
%TD*%
%TO.C,TP27*%
X245746000Y-112522000D03*
%TD*%
%TO.C,TP51*%
X271781000Y-197104000D03*
%TD*%
%TO.C,TP59*%
X132461000Y-181737000D03*
%TD*%
%TO.C,TP13*%
X150219834Y-131445000D03*
%TD*%
D14*
%TO.C,R9*%
X284480000Y-181610000D03*
D15*
X284480000Y-191770000D03*
%TD*%
D14*
%TO.C,R1*%
X113284000Y-121666000D03*
D15*
X123444000Y-121666000D03*
%TD*%
D13*
%TO.C,TP39*%
X171069000Y-141239000D03*
%TD*%
D28*
%TO.C,L4*%
X307341000Y-163703000D03*
D29*
X309881000Y-163703000D03*
D30*
X304261779Y-145517673D03*
X288261779Y-163717673D03*
%TD*%
D31*
%TO.C,D7*%
X252222000Y-76835000D03*
D15*
X252222000Y-69215000D03*
%TD*%
D32*
%TO.C,D4*%
X254001000Y-173355000D03*
D33*
X254001000Y-183515000D03*
%TD*%
D13*
%TO.C,TP57*%
X298070000Y-99568000D03*
%TD*%
%TO.C,TP61*%
X132461000Y-204839000D03*
%TD*%
%TO.C,TP46*%
X189103000Y-141239000D03*
%TD*%
D18*
%TO.C,I4*%
X156125334Y-156464000D03*
X159300334Y-156464000D03*
%TD*%
D31*
%TO.C,C2*%
X135803000Y-33147000D03*
D14*
X138303000Y-33147000D03*
%TD*%
D16*
%TO.C,S2*%
X181992000Y-57912000D03*
X177292000Y-57912000D03*
X172592000Y-57912000D03*
D17*
X185167000Y-57912000D03*
X169417000Y-57912000D03*
%TD*%
D13*
%TO.C,TP37*%
X226188000Y-162433000D03*
%TD*%
%TO.C,TP32*%
X210312000Y-65532000D03*
%TD*%
D22*
%TO.C,D8*%
X227970000Y-58547000D03*
D21*
X230510000Y-58547000D03*
%TD*%
D13*
%TO.C,TP49*%
X259716000Y-197104000D03*
%TD*%
%TO.C,TP19*%
X177292000Y-65532000D03*
%TD*%
%TO.C,TP67*%
X301499000Y-172720000D03*
%TD*%
D14*
%TO.C,R15*%
X143256000Y-52832000D03*
D15*
X143256000Y-65532000D03*
%TD*%
D13*
%TO.C,TP60*%
X132461000Y-192148000D03*
%TD*%
D14*
%TO.C,R18*%
X122809000Y-65405000D03*
D15*
X122809000Y-55245000D03*
%TD*%
D13*
%TO.C,TP40*%
X228854000Y-188722000D03*
%TD*%
%TO.C,TP52*%
X309372000Y-50571400D03*
%TD*%
D34*
%TO.C,R7*%
X289981000Y-74784000D03*
X294981000Y-74784000D03*
%TD*%
D13*
%TO.C,TP8*%
X150219834Y-115062000D03*
%TD*%
D31*
%TO.C,D6*%
X160274000Y-63373000D03*
D15*
X160274000Y-55753000D03*
%TD*%
D13*
%TO.C,TP12*%
X142642166Y-141097000D03*
%TD*%
D18*
%TO.C,I3*%
X141160500Y-156464000D03*
X144335500Y-156464000D03*
%TD*%
D13*
%TO.C,TP77*%
X311786000Y-197104000D03*
%TD*%
D14*
%TO.C,R23*%
X139827000Y-52832000D03*
D15*
X139827000Y-62992000D03*
%TD*%
D13*
%TO.C,TP6*%
X105325334Y-131445000D03*
%TD*%
%TO.C,TP16*%
X172339000Y-169037000D03*
%TD*%
%TO.C,TP72*%
X172461000Y-204839000D03*
%TD*%
%TO.C,TP29*%
X202438000Y-86487000D03*
%TD*%
D15*
%TO.C,R4*%
X182753000Y-157099000D03*
D14*
X182753000Y-167259000D03*
%TD*%
D13*
%TO.C,TP5*%
X122809000Y-86487000D03*
%TD*%
%TO.C,TP65*%
X288672000Y-197104000D03*
%TD*%
%TO.C,TP50*%
X108331000Y-181864000D03*
%TD*%
%TO.C,TP17*%
X185166000Y-86487000D03*
%TD*%
D14*
%TO.C,R19*%
X125857000Y-65405000D03*
D15*
X125857000Y-55245000D03*
%TD*%
D13*
%TO.C,TP25*%
X191770000Y-197104000D03*
%TD*%
D32*
%TO.C,D2*%
X171430500Y-220726000D03*
D33*
X181590500Y-220726000D03*
%TD*%
D31*
%TO.C,C4*%
X108522888Y-56261000D03*
D14*
X111022888Y-56261000D03*
%TD*%
%TO.C,R12*%
X150114000Y-52832000D03*
D15*
X150114000Y-65532000D03*
%TD*%
D13*
%TO.C,TP20*%
X228474000Y-112522000D03*
%TD*%
D14*
%TO.C,R24*%
X255270000Y-69215000D03*
D15*
X255270000Y-79375000D03*
%TD*%
D16*
%TO.C,S3*%
X207138000Y-57912000D03*
X202438000Y-57912000D03*
X197738000Y-57912000D03*
D17*
X210313000Y-57912000D03*
X194563000Y-57912000D03*
%TD*%
D13*
%TO.C,TP22*%
X220600000Y-131445000D03*
%TD*%
%TO.C,TP9*%
X147193000Y-86487000D03*
%TD*%
%TO.C,TP3*%
X105325334Y-115062000D03*
%TD*%
D26*
%TO.C,R2*%
X139761000Y-181737000D03*
D27*
X165161000Y-181737000D03*
%TD*%
D18*
%TO.C,BZ1*%
X297942000Y-111262000D03*
X297942000Y-118862000D03*
%TD*%
D13*
%TO.C,TP44*%
X242317000Y-197104000D03*
%TD*%
%TO.C,TP2*%
X147828000Y-33147000D03*
%TD*%
%TO.C,TP42*%
X226188000Y-150114000D03*
%TD*%
D32*
%TO.C,D5*%
X305562000Y-179832000D03*
D33*
X305562000Y-189992000D03*
%TD*%
D13*
%TO.C,TP36*%
X222123000Y-65532000D03*
%TD*%
%TO.C,TP4*%
X135001000Y-86487000D03*
%TD*%
%TO.C,TP33*%
X261494000Y-112522000D03*
%TD*%
%TO.C,TP30*%
X253620000Y-131445000D03*
%TD*%
%TO.C,TP18*%
X236348000Y-131445000D03*
%TD*%
%TO.C,TP43*%
X242317000Y-162433000D03*
%TD*%
D14*
%TO.C,R20*%
X123952000Y-49784000D03*
D15*
X134112000Y-49784000D03*
%TD*%
D25*
%TO.C,RL1*%
X114427000Y-49854786D03*
X114427000Y-57474786D03*
X114427000Y-60014786D03*
X119507000Y-60014786D03*
X119507000Y-57474786D03*
X119507000Y-49854786D03*
%TD*%
D13*
%TO.C,TP26*%
X194564000Y-65532000D03*
%TD*%
D32*
%TO.C,D1*%
X133477000Y-220726000D03*
D33*
X123317000Y-220726000D03*
%TD*%
D13*
%TO.C,TP34*%
X222123000Y-86487000D03*
%TD*%
D14*
%TO.C,R8*%
X303911000Y-80137000D03*
D15*
X303911000Y-69977000D03*
%TD*%
D13*
%TO.C,TP11*%
X127762000Y-141097000D03*
%TD*%
D14*
%TO.C,R14*%
X157353000Y-65532000D03*
D15*
X157353000Y-55372000D03*
%TD*%
D13*
%TO.C,TP58*%
X297942000Y-131445000D03*
%TD*%
D35*
%TO.C,I5*%
X276516000Y-190561000D03*
X281016000Y-190561000D03*
%TD*%
D14*
%TO.C,R16*%
X146685000Y-65532000D03*
D15*
X146685000Y-55372000D03*
%TD*%
D13*
%TO.C,TP14*%
X157607000Y-141097000D03*
%TD*%
%TO.C,TP69*%
X296418000Y-86487000D03*
%TD*%
D32*
%TO.C,D3*%
X309118000Y-109982000D03*
D33*
X309118000Y-120142000D03*
%TD*%
D13*
%TO.C,TP66*%
X309372000Y-64668400D03*
%TD*%
D14*
%TO.C,R17*%
X110998000Y-91821000D03*
D15*
X121158000Y-91821000D03*
%TD*%
D13*
%TO.C,TP55*%
X271781000Y-172720000D03*
%TD*%
%TO.C,TP35*%
X238252000Y-172720000D03*
%TD*%
D36*
%TO.C,Q3*%
X108458000Y-50165000D03*
D18*
X109728000Y-48895000D03*
X110998000Y-50165000D03*
%TD*%
D13*
%TO.C,TP41*%
X218822000Y-172720000D03*
%TD*%
D14*
%TO.C,F1*%
X119507000Y-65445000D03*
X119507000Y-70445000D03*
%TD*%
D37*
%TO.C,Q1*%
X273939000Y-52940000D03*
D38*
X271399000Y-68740000D03*
D39*
X273939000Y-68740000D03*
X276479000Y-68740000D03*
%TD*%
D31*
%TO.C,C5*%
X136652000Y-69912113D03*
D14*
X136652000Y-67412113D03*
%TD*%
D13*
%TO.C,TP68*%
X301499000Y-197104000D03*
%TD*%
%TO.C,TP31*%
X205994000Y-184531000D03*
%TD*%
D14*
%TO.C,F2*%
X175467000Y-117475000D03*
X180467000Y-117475000D03*
%TD*%
D13*
%TO.C,TP70*%
X172461000Y-181737000D03*
%TD*%
D34*
%TO.C,R6*%
X259715000Y-69596000D03*
D40*
X259715000Y-89916000D03*
%TD*%
D16*
%TO.C,S5*%
X248920000Y-104902000D03*
X253620000Y-104902000D03*
X258320000Y-104902000D03*
D17*
X245745000Y-104902000D03*
X261495000Y-104902000D03*
%TD*%
D13*
%TO.C,TP24*%
X191770000Y-172720000D03*
%TD*%
D36*
%TO.C,Q2*%
X114935000Y-79502000D03*
D18*
X113665000Y-80772000D03*
X112395000Y-79502000D03*
%TD*%
D13*
%TO.C,TP62*%
X196510500Y-215900000D03*
%TD*%
%TO.C,TP21*%
X169418000Y-86487000D03*
%TD*%
%TO.C,TP73*%
X156510500Y-215900000D03*
%TD*%
%TO.C,TP48*%
X259716000Y-162433000D03*
%TD*%
%TO.C,TP10*%
X112818334Y-169037000D03*
%TD*%
D14*
%TO.C,R21*%
X113665000Y-63246000D03*
D15*
X113665000Y-73406000D03*
%TD*%
D11*
%TO.C,J1*%
X192457055Y-37373625D03*
X194617055Y-37373625D03*
X196777055Y-37373625D03*
X198937055Y-37373625D03*
X201097055Y-37373625D03*
X203257055Y-37373625D03*
X205417055Y-37373625D03*
X207577055Y-37373625D03*
X209737055Y-37373625D03*
X211897055Y-37373625D03*
X214057055Y-37373625D03*
X216217055Y-37373625D03*
X218377055Y-37373625D03*
X220537055Y-37373625D03*
X222697055Y-37373625D03*
X224857055Y-37373625D03*
X227017055Y-37373625D03*
X229177055Y-37373625D03*
X192457055Y-33083625D03*
X194617055Y-33083625D03*
X196777055Y-33083625D03*
X198937055Y-33083625D03*
X201097055Y-33083625D03*
X203257055Y-33083625D03*
X205417055Y-33083625D03*
X207577055Y-33083625D03*
X209737055Y-33083625D03*
X211897055Y-33083625D03*
X214057055Y-33083625D03*
X216217055Y-33083625D03*
X218377055Y-33083625D03*
X220537055Y-33083625D03*
X222697055Y-33083625D03*
X224857055Y-33083625D03*
X227017055Y-33083625D03*
X229177055Y-33083625D03*
D41*
X180947055Y-35228625D03*
X240687055Y-35228625D03*
%TD*%
D13*
%TO.C,TP56*%
X271399000Y-86487000D03*
%TD*%
D31*
%TO.C,U1*%
X129042000Y-61077000D03*
D15*
X131582000Y-61077000D03*
X134122000Y-61077000D03*
X136662000Y-61077000D03*
X136662000Y-53457000D03*
X134122000Y-53457000D03*
X131582000Y-53457000D03*
X129042000Y-53457000D03*
%TD*%
D42*
%TO.C,R10*%
X211894901Y-30408250D03*
X211894901Y-28758250D03*
%TD*%
D43*
%TO.C,C3*%
X131077000Y-63754000D03*
X129527000Y-63754000D03*
%TD*%
D42*
%TO.C,R11*%
X201041000Y-41401000D03*
X201041000Y-39751000D03*
%TD*%
M02*
