M48
; DRILL file {KiCad 7.0.1} date Tue Jan 30 16:28:09 2024
; FORMAT={-:-/ absolute / inch / decimal}
; #@! TF.CreationDate,2024-01-30T16:28:09+02:00
; #@! TF.GenerationSoftware,Kicad,Pcbnew,7.0.1
; #@! TF.FileFunction,Plated,1,2,PTH
FMAT,2
INCH
; #@! TA.AperFunction,Plated,PTH,ViaDrill
T1C0.0157
; #@! TA.AperFunction,Plated,PTH,ComponentDrill
T2C0.0295
; #@! TA.AperFunction,Plated,PTH,ComponentDrill
T3C0.0299
; #@! TA.AperFunction,Plated,PTH,ComponentDrill
T4C0.0300
; #@! TA.AperFunction,Plated,PTH,ComponentDrill
T5C0.0315
; #@! TA.AperFunction,Plated,PTH,ComponentDrill
T6C0.0354
; #@! TA.AperFunction,Plated,PTH,ComponentDrill
T7C0.0394
; #@! TA.AperFunction,Plated,PTH,ComponentDrill
T8C0.0433
; #@! TA.AperFunction,Plated,PTH,ComponentDrill
T9C0.0472
; #@! TA.AperFunction,Plated,PTH,ComponentDrill
T10C0.0510
; #@! TA.AperFunction,Plated,PTH,ComponentDrill
T11C0.0512
; #@! TA.AperFunction,Plated,PTH,ComponentDrill
T12C0.0551
; #@! TA.AperFunction,Plated,PTH,ComponentDrill
T13C0.0728
; #@! TA.AperFunction,Plated,PTH,ComponentDrill
T14C0.1181
; #@! TA.AperFunction,Plated,PTH,ComponentDrill
T15C0.1260
; #@! TA.AperFunction,Plated,PTH,ViaDrill
T16C0.1575
%
G90
G05
T1
X7.44Y-2.0861
X7.5Y-1.095
X8.1417Y-2.016
X8.345Y-1.085
X9.915Y-5.59
T2
X4.27Y-1.975
X4.32Y-1.925
X4.37Y-1.975
X4.425Y-3.13
X4.475Y-3.18
X4.525Y-3.13
T3
X7.91Y-6.27
X7.91Y-6.47
X8.11Y-6.37
T4
X10.8865Y-7.5024
X11.0636Y-7.5024
T5
X4.2726Y-2.215
X4.37Y-3.615
X4.371Y-2.215
X4.3792Y-6.16
X4.46Y-4.79
X4.475Y-2.49
X4.475Y-2.89
X4.5042Y-6.16
X4.595Y-2.49
X4.595Y-2.89
X4.705Y-2.5766
X4.705Y-2.7734
X4.77Y-3.615
X4.835Y-2.175
X4.835Y-2.575
X4.86Y-4.79
X4.88Y-1.96
X4.955Y-2.175
X4.955Y-2.575
X4.9683Y-6.16
X5.0804Y-2.1046
X5.0804Y-2.4046
X5.0933Y-6.16
X5.1804Y-2.1046
X5.1804Y-2.4046
X5.28Y-1.96
X5.2804Y-2.1046
X5.2804Y-2.4046
X5.3466Y-1.305
X5.38Y-2.654
X5.38Y-2.7524
X5.3804Y-2.1046
X5.3804Y-2.4046
X5.445Y-1.305
X5.505Y-2.08
X5.505Y-2.48
X5.5575Y-6.16
X5.64Y-2.08
X5.64Y-2.58
X5.6825Y-6.16
X5.775Y-2.18
X5.775Y-2.58
X5.91Y-2.08
X5.91Y-2.58
X6.06Y-2.08
X6.06Y-2.58
X6.1467Y-6.16
X6.195Y-2.18
X6.195Y-2.58
X6.2717Y-6.16
X6.31Y-2.195
X6.31Y-2.495
X6.9081Y-4.625
X7.105Y-4.625
X7.195Y-6.185
X7.195Y-6.585
X9.93Y-2.725
X9.93Y-3.025
X9.94Y-2.525
X10.05Y-2.725
X10.05Y-3.125
X10.34Y-2.525
X11.0666Y-1.99
X11.2Y-7.15
X11.2Y-7.55
X11.2634Y-1.99
X11.73Y-4.3804
X11.73Y-4.6796
X11.965Y-2.755
X11.965Y-3.155
T6
X5.4848Y-4.81
X5.485Y-4.215
X5.5848Y-4.81
X5.585Y-4.215
X7.577Y-1.3025
X7.577Y-1.4714
X7.6621Y-1.3025
X7.6621Y-1.4714
X7.7471Y-1.3025
X7.7471Y-1.4714
X7.8322Y-1.3025
X7.8322Y-1.4714
X7.9172Y-1.3025
X7.9172Y-1.4714
X8.0022Y-1.3025
X8.0022Y-1.4714
X8.0873Y-1.3025
X8.0873Y-1.4714
X8.1723Y-1.3025
X8.1723Y-1.4714
X8.2574Y-1.3025
X8.2574Y-1.4714
X8.3424Y-1.3025
X8.3424Y-1.4714
X8.4274Y-1.3025
X8.4274Y-1.4714
X8.5125Y-1.3025
X8.5125Y-1.4714
X8.5975Y-1.3025
X8.5975Y-1.4714
X8.6826Y-1.3025
X8.6826Y-1.4714
X8.7676Y-1.3025
X8.7676Y-1.4714
X8.8526Y-1.3025
X8.8526Y-1.4714
X8.9377Y-1.3025
X8.9377Y-1.4714
X8.9752Y-2.305
X9.0227Y-1.3025
X9.0227Y-1.4714
X9.0752Y-2.305
T7
X4.505Y-1.9628
X4.505Y-2.2628
X4.505Y-2.3628
X4.705Y-1.9628
X4.705Y-2.2628
X4.705Y-2.3628
X5.9092Y-8.0645
X6.106Y-8.0645
X6.6538Y-3.9375
X6.6538Y-4.095
X6.6538Y-4.2525
X8.2562Y-3.9375
X8.2562Y-4.095
X8.2562Y-4.2525
X12.1Y-6.445
X12.2Y-6.445
T8
X4.855Y-8.69
X5.255Y-8.69
X6.7492Y-8.69
X7.1492Y-8.69
X10.0Y-6.825
X10.0Y-7.225
X12.03Y-7.08
X12.03Y-7.48
X12.17Y-4.33
X12.17Y-4.73
T9
X10.225Y-2.74
X10.225Y-3.54
X10.685Y-2.7063
X10.785Y-2.7063
X10.885Y-2.7063
X11.4166Y-2.9443
X11.6134Y-2.9443
T10
X9.3941Y-5.6974
X9.5319Y-5.9926
X9.6697Y-5.6974
X10.3193Y-5.6974
X10.3193Y-5.9926
T11
X5.0Y-4.53
X5.15Y-4.53
T12
X5.5024Y-7.155
X5.5024Y-7.5649
X6.5024Y-7.155
X6.5024Y-7.5649
T13
X4.2549Y-3.8149
X4.2549Y-4.0051
X4.44Y-3.8149
X4.44Y-4.0051
X4.625Y-3.8149
X4.625Y-4.0051
X6.795Y-2.28
X6.98Y-2.28
X7.165Y-2.28
X7.785Y-2.28
X7.97Y-2.28
X8.155Y-2.28
X8.81Y-4.13
X8.995Y-4.13
X9.1801Y-4.13
X9.8Y-4.13
X9.985Y-4.13
X10.1701Y-4.13
T15
X4.1467Y-4.53
X4.1467Y-5.175
X4.265Y-7.16
X4.2682Y-8.5
X4.44Y-5.555
X4.4417Y-6.655
X4.835Y-3.405
X5.0Y-1.305
X5.03Y-5.555
X5.215Y-7.155
X5.215Y-7.5649
X5.215Y-8.0645
X5.315Y-3.405
X5.6158Y-5.555
X5.795Y-3.405
X5.82Y-1.305
X5.843Y-8.5
X5.9142Y-4.53
X5.9142Y-5.175
X6.1618Y-8.5
X6.205Y-5.555
X6.2092Y-6.655
X6.67Y-3.405
X6.735Y-5.5606
X6.785Y-6.655
X6.7898Y-7.155
X6.7898Y-7.5649
X6.7898Y-8.0645
X6.98Y-2.58
X7.1239Y-1.387
X7.29Y-3.405
X7.445Y-4.625
X7.445Y-5.5606
X7.55Y-5.91
X7.55Y-6.8
X7.55Y-7.76
X7.66Y-2.58
X7.7366Y-8.5
X7.97Y-3.405
X8.1Y-7.76
X8.11Y-7.265
X8.155Y-5.5606
X8.28Y-2.58
X8.615Y-6.8
X8.615Y-7.76
X8.685Y-5.175
X8.745Y-2.58
X8.745Y-3.405
X8.905Y-5.91
X8.905Y-6.395
X8.995Y-4.43
X9.01Y-7.43
X9.305Y-5.175
X9.38Y-6.8
X9.4759Y-1.387
X9.54Y-6.395
X9.54Y-7.76
X9.675Y-4.43
X9.985Y-5.175
X10.225Y-6.395
X10.225Y-7.76
X10.295Y-4.43
X10.685Y-3.405
X10.7Y-6.8
X10.7Y-7.76
X10.865Y-5.175
X10.87Y-3.92
X11.365Y-7.76
X11.37Y-6.8
X11.67Y-3.405
X11.73Y-5.175
X11.735Y-3.92
X11.87Y-6.8
X11.87Y-7.76
X12.175Y-3.405
X12.18Y-1.991
X12.18Y-2.546
X12.275Y-6.8
X12.275Y-7.76
T16
X5.83Y-4.135
X6.79Y-6.29
X7.275Y-7.565
X9.885Y-7.74
X9.935Y-3.495
X10.285Y-5.175
X10.34Y-6.645
T5
G00X4.1299Y-3.8352
M15
G01X4.1299Y-3.9848
M16
G05
G00X4.75Y-3.8352
M15
G01X4.75Y-3.9848
M16
G05
G00X6.67Y-2.3548
M15
G01X6.67Y-2.2052
M16
G05
G00X7.29Y-2.3548
M15
G01X7.29Y-2.2052
M16
G05
G00X7.66Y-2.3548
M15
G01X7.66Y-2.2052
M16
G05
G00X8.28Y-2.3548
M15
G01X8.28Y-2.2052
M16
G05
G00X8.685Y-4.0552
M15
G01X8.685Y-4.2048
M16
G05
G00X9.3051Y-4.0552
M15
G01X9.3051Y-4.2048
M16
G05
G00X9.675Y-4.0552
M15
G01X9.675Y-4.2048
M16
G05
G00X10.2951Y-4.0552
M15
G01X10.2951Y-4.2048
M16
G05
T14
G00X6.7562Y-3.8194
M15
G01X6.7956Y-3.8194
M16
G05
G00X6.7562Y-4.3706
M15
G01X6.7956Y-4.3706
M16
G05
G00X8.1144Y-3.8194
M15
G01X8.1538Y-3.8194
M16
G05
G00X8.1144Y-4.3706
M15
G01X8.1538Y-4.3706
M16
G05
G00X11.3883Y-6.4456
M15
G01X11.3095Y-6.4456
M16
G05
G00X12.0182Y-5.729
M15
G01X11.9394Y-5.729
M16
G05
T0
M30
